<svg width="1368" height="1093" viewBox="0 0 1368 1093" fill="none" xmlns="http://www.w3.org/2000/svg">
<g clip-path="url(#clip0)">
<path d="M1108.41 1068.08C1106.5 1068.08 1104.62 1067.6 1102.96 1066.71L787.506 897.4C784.942 896.02 783.059 893.731 782.27 891.035C781.482 888.338 781.852 885.455 783.3 883.018L1031.76 465.821C1032.48 464.614 1033.44 463.554 1034.59 462.7C1035.74 461.846 1037.05 461.216 1038.46 460.845C1039.87 460.474 1041.34 460.37 1042.79 460.539C1044.24 460.707 1045.64 461.146 1046.91 461.828L1362.36 631.135C1364.92 632.515 1366.81 634.804 1367.59 637.5C1368.38 640.196 1368.01 643.079 1366.57 645.517L1118.11 1062.71C1117.39 1063.92 1116.43 1064.98 1115.28 1065.84C1114.13 1066.69 1112.81 1067.32 1111.4 1067.69C1110.43 1067.95 1109.42 1068.08 1108.41 1068.08Z" fill="#E6E6E6"/>
<path d="M1023.78 483.183L1022.52 485.311L1354.86 664.242L1356.12 662.113L1023.78 483.183Z" fill="white"/>
<path d="M1001.04 521.496L999.775 523.624L1332.11 702.555L1333.38 700.426L1001.04 521.496Z" fill="white"/>
<path d="M978.293 559.809L977.029 561.938L1309.37 740.868L1310.63 738.74L978.293 559.809Z" fill="white"/>
<path d="M955.547 598.122L954.284 600.251L1286.62 779.181L1287.88 777.053L955.547 598.122Z" fill="white"/>
<path d="M932.802 636.435L931.538 638.564L1263.87 817.494L1265.14 815.366L932.802 636.435Z" fill="white"/>
<path d="M910.056 674.748L908.792 676.877L1241.13 855.808L1242.39 853.679L910.056 674.748Z" fill="white"/>
<path d="M887.311 713.062L886.047 715.19L1218.38 894.121L1219.65 891.992L887.311 713.062Z" fill="white"/>
<path d="M864.565 751.375L863.301 753.503L1195.64 932.434L1196.9 930.305L864.565 751.375Z" fill="white"/>
<path d="M841.819 789.688L840.556 791.817L1172.89 970.747L1174.16 968.618L841.819 789.688Z" fill="white"/>
<path d="M819.074 828.001L817.81 830.129L1150.15 1009.06L1151.41 1006.93L819.074 828.001Z" fill="white"/>
<path d="M796.328 866.314L795.064 868.443L1127.4 1047.37L1128.66 1045.24L796.328 866.314Z" fill="white"/>
<path d="M1079.41 1007.55C1077.51 1007.55 1075.63 1007.08 1073.97 1006.18L759.083 836.209C756.524 834.823 754.644 832.525 753.857 829.819C753.07 827.112 753.44 824.217 754.885 821.77L1002.9 402.944C1003.61 401.733 1004.57 400.668 1005.72 399.811C1006.87 398.954 1008.18 398.321 1009.59 397.949C1010.99 397.576 1012.46 397.472 1013.91 397.641C1015.35 397.811 1016.75 398.25 1018.02 398.935L1332.9 568.904C1335.46 570.289 1337.34 572.587 1338.13 575.294C1338.92 578 1338.55 580.895 1337.1 583.342L1089.09 1002.17C1088.38 1003.38 1087.42 1004.45 1086.27 1005.31C1085.12 1006.16 1083.81 1006.79 1082.4 1007.16C1081.43 1007.42 1080.42 1007.55 1079.41 1007.55Z" fill="#F2F2F2"/>
<path d="M994.532 419.73L993.268 421.858L1325.6 600.789L1326.87 598.661L994.532 419.73Z" fill="white"/>
<path d="M971.786 458.043L970.522 460.172L1302.86 639.102L1304.12 636.974L971.786 458.043Z" fill="white"/>
<path d="M949.04 496.356L947.777 498.485L1280.11 677.415L1281.38 675.287L949.04 496.356Z" fill="white"/>
<path d="M926.295 534.669L925.031 536.798L1257.37 715.728L1258.63 713.6L926.295 534.669Z" fill="white"/>
<path d="M903.549 572.982L902.286 575.111L1234.62 754.042L1235.89 751.913L903.549 572.982Z" fill="white"/>
<path d="M880.804 611.296L879.54 613.424L1211.88 792.355L1213.14 790.226L880.804 611.296Z" fill="white"/>
<path d="M858.058 649.609L856.794 651.737L1189.13 830.668L1190.39 828.539L858.058 649.609Z" fill="white"/>
<path d="M835.313 687.922L834.049 690.05L1166.39 868.981L1167.65 866.853L835.313 687.922Z" fill="white"/>
<path d="M812.567 726.235L811.303 728.364L1143.64 907.294L1144.9 905.166L812.567 726.235Z" fill="white"/>
<path d="M789.821 764.548L788.558 766.677L1120.89 945.607L1122.16 943.479L789.821 764.548Z" fill="white"/>
<path d="M767.076 802.861L765.812 804.99L1098.15 983.921L1099.41 981.792L767.076 802.861Z" fill="white"/>
<path d="M1048.67 395.189H547.2V1059.77H1048.67C1050.47 1059.77 1052.2 1059.09 1053.48 1057.87C1054.75 1056.66 1055.46 1055.01 1055.46 1053.3V401.662C1055.46 399.945 1054.75 398.299 1053.48 397.085C1052.2 395.871 1050.47 395.189 1048.67 395.189V395.189ZM575.5 1041.43C573.037 1041.43 570.63 1040.73 568.582 1039.43C566.534 1038.13 564.938 1036.27 563.996 1034.1C563.053 1031.94 562.807 1029.55 563.287 1027.25C563.768 1024.95 564.954 1022.83 566.695 1021.17C568.436 1019.51 570.655 1018.38 573.071 1017.92C575.486 1017.47 577.99 1017.7 580.265 1018.6C582.54 1019.5 584.485 1021.02 585.853 1022.97C587.221 1024.92 587.952 1027.22 587.952 1029.56C587.952 1031.12 587.63 1032.66 587.004 1034.1C586.378 1035.54 585.461 1036.85 584.305 1037.95C583.148 1039.06 581.776 1039.93 580.265 1040.53C578.754 1041.12 577.135 1041.43 575.5 1041.43V1041.43ZM575.5 981.014C573.037 981.014 570.63 980.318 568.582 979.014C566.534 977.71 564.938 975.856 563.996 973.688C563.053 971.519 562.807 969.133 563.287 966.831C563.768 964.529 564.954 962.414 566.695 960.754C568.436 959.095 570.655 957.965 573.071 957.507C575.486 957.049 577.99 957.284 580.265 958.182C582.54 959.08 584.485 960.601 585.853 962.553C587.221 964.504 587.952 966.799 587.952 969.146C587.952 970.705 587.63 972.248 587.004 973.688C586.378 975.127 585.461 976.436 584.305 977.538C583.148 978.64 581.776 979.514 580.265 980.11C578.754 980.707 577.135 981.014 575.5 981.014V981.014ZM575.5 920.597C573.037 920.597 570.63 919.901 568.582 918.597C566.534 917.293 564.938 915.44 563.996 913.271C563.053 911.103 562.807 908.716 563.287 906.414C563.768 904.112 564.954 901.998 566.695 900.338C568.436 898.678 570.655 897.548 573.071 897.09C575.486 896.632 577.99 896.867 580.265 897.765C582.54 898.664 584.485 900.185 585.853 902.136C587.221 904.088 587.952 906.382 587.952 908.73C587.952 910.288 587.63 911.831 587.004 913.271C586.378 914.711 585.461 916.019 584.305 917.121C583.148 918.223 581.776 919.097 580.265 919.694C578.754 920.29 577.135 920.597 575.5 920.597V920.597ZM575.5 860.181C573.037 860.181 570.63 859.485 568.582 858.181C566.534 856.877 564.938 855.023 563.996 852.855C563.053 850.686 562.807 848.3 563.287 845.998C563.768 843.696 564.954 841.581 566.695 839.921C568.436 838.262 570.655 837.131 573.071 836.673C575.486 836.216 577.99 836.451 580.265 837.349C582.54 838.247 584.485 839.768 585.853 841.72C587.221 843.671 587.952 845.966 587.952 848.313C587.952 849.871 587.63 851.415 587.004 852.855C586.378 854.294 585.461 855.603 584.305 856.705C583.148 857.807 581.776 858.681 580.265 859.277C578.754 859.874 577.135 860.181 575.5 860.181V860.181ZM575.5 799.764C573.037 799.764 570.63 799.068 568.582 797.764C566.534 796.46 564.938 794.606 563.996 792.438C563.053 790.269 562.807 787.883 563.287 785.581C563.768 783.279 564.954 781.165 566.695 779.505C568.436 777.845 570.655 776.715 573.071 776.257C575.486 775.799 577.99 776.034 580.265 776.932C582.54 777.831 584.485 779.352 585.853 781.303C587.221 783.255 587.952 785.549 587.952 787.896C587.952 789.455 587.63 790.998 587.004 792.438C586.378 793.878 585.461 795.186 584.305 796.288C583.148 797.39 581.776 798.264 580.265 798.861C578.754 799.457 577.135 799.764 575.5 799.764V799.764ZM575.5 739.347C573.037 739.347 570.63 738.651 568.582 737.347C566.534 736.043 564.938 734.19 563.996 732.021C563.053 729.853 562.807 727.467 563.287 725.165C563.768 722.863 564.954 720.748 566.695 719.088C568.436 717.429 570.655 716.298 573.071 715.84C575.486 715.382 577.99 715.618 580.265 716.516C582.54 717.414 584.485 718.935 585.853 720.887C587.221 722.838 587.952 725.133 587.952 727.48C587.952 729.038 587.63 730.582 587.004 732.021C586.378 733.461 585.461 734.77 584.305 735.872C583.148 736.974 581.776 737.848 580.265 738.444C578.754 739.04 577.135 739.347 575.5 739.347V739.347ZM575.5 678.931C573.037 678.931 570.63 678.235 568.582 676.931C566.534 675.627 564.938 673.773 563.996 671.605C563.053 669.436 562.807 667.05 563.287 664.748C563.768 662.446 564.954 660.331 566.695 658.672C568.436 657.012 570.655 655.882 573.071 655.424C575.486 654.966 577.99 655.201 580.265 656.099C582.54 656.997 584.485 658.518 585.853 660.47C587.221 662.422 587.952 664.716 587.952 667.063C587.952 668.622 587.63 670.165 587.004 671.605C586.378 673.045 585.461 674.353 584.305 675.455C583.148 676.557 581.776 677.431 580.265 678.028C578.754 678.624 577.135 678.931 575.5 678.931V678.931ZM575.5 618.514C573.037 618.514 570.63 617.818 568.582 616.514C566.534 615.21 564.938 613.357 563.996 611.188C563.053 609.02 562.807 606.634 563.287 604.332C563.768 602.029 564.954 599.915 566.695 598.255C568.436 596.595 570.655 595.465 573.071 595.007C575.486 594.549 577.99 594.784 580.265 595.683C582.54 596.581 584.485 598.102 585.853 600.054C587.221 602.005 587.952 604.3 587.952 606.647C587.952 608.205 587.63 609.748 587.004 611.188C586.378 612.628 585.461 613.936 584.305 615.038C583.148 616.14 581.776 617.015 580.265 617.611C578.754 618.207 577.135 618.514 575.5 618.514V618.514ZM575.5 558.098C573.037 558.098 570.63 557.402 568.582 556.098C566.534 554.794 564.938 552.94 563.996 550.772C563.053 548.603 562.807 546.217 563.287 543.915C563.768 541.613 564.954 539.498 566.695 537.839C568.436 536.179 570.655 535.049 573.071 534.591C575.486 534.133 577.99 534.368 580.265 535.266C582.54 536.164 584.485 537.685 585.853 539.637C587.221 541.589 587.952 543.883 587.952 546.23C587.952 547.789 587.63 549.332 587.004 550.772C586.378 552.212 585.461 553.52 584.305 554.622C583.148 555.724 581.776 556.598 580.265 557.194C578.754 557.791 577.135 558.098 575.5 558.098V558.098ZM575.5 497.681C573.037 497.681 570.63 496.985 568.582 495.681C566.534 494.377 564.938 492.524 563.996 490.355C563.053 488.187 562.807 485.801 563.287 483.499C563.768 481.196 564.954 479.082 566.695 477.422C568.436 475.762 570.655 474.632 573.071 474.174C575.486 473.716 577.99 473.951 580.265 474.85C582.54 475.748 584.485 477.269 585.853 479.22C587.221 481.172 587.952 483.467 587.952 485.814C587.952 487.372 587.63 488.915 587.004 490.355C586.378 491.795 585.461 493.103 584.305 494.205C583.148 495.307 581.776 496.182 580.265 496.778C578.754 497.374 577.135 497.681 575.5 497.681V497.681ZM575.5 437.265C573.037 437.265 570.63 436.569 568.582 435.265C566.534 433.961 564.938 432.107 563.996 429.939C563.053 427.77 562.807 425.384 563.287 423.082C563.768 420.78 564.954 418.665 566.695 417.006C568.436 415.346 570.655 414.216 573.071 413.758C575.486 413.3 577.99 413.535 580.265 414.433C582.54 415.331 584.485 416.852 585.853 418.804C587.221 420.756 587.952 423.05 587.952 425.397C587.952 426.956 587.63 428.499 587.004 429.939C586.378 431.379 585.461 432.687 584.305 433.789C583.148 434.891 581.776 435.765 580.265 436.361C578.754 436.958 577.135 437.265 575.5 437.265V437.265Z" fill="#00ADB5"/>
<path d="M546.148 431.978C542.809 431.978 513.526 431.812 513.526 426.045C513.526 420.277 542.809 420.111 546.148 420.111V422.484C528.901 422.484 517.717 424.521 515.916 426.045C517.717 427.568 528.901 429.605 546.148 429.605C563.356 429.605 574.528 427.577 576.367 426.055C575.492 425.403 571.917 424.037 562.33 423.162L562.524 420.798C578.769 422.279 578.769 425.015 578.769 426.045C578.769 431.812 549.487 431.978 546.148 431.978Z" fill="#2F2E41"/>
<path d="M546.148 492.503C542.809 492.503 513.526 492.336 513.526 486.569C513.526 480.801 542.809 480.635 546.148 480.635V483.009C528.901 483.009 517.717 485.046 515.916 486.569C517.717 488.092 528.901 490.129 546.148 490.129C563.356 490.129 574.528 488.101 576.367 486.579C575.492 485.928 571.917 484.561 562.33 483.687L562.524 481.322C578.769 482.804 578.769 485.539 578.769 486.569C578.769 492.336 549.487 492.503 546.148 492.503Z" fill="#2F2E41"/>
<path d="M546.148 553.027C542.809 553.027 513.526 552.861 513.526 547.093C513.526 541.326 542.809 541.16 546.148 541.16V543.533C528.901 543.533 517.717 545.57 515.916 547.093C517.717 548.617 528.901 550.654 546.148 550.654C563.356 550.654 574.528 548.625 576.367 547.104C575.492 546.452 571.917 545.085 562.33 544.211L562.524 541.847C578.769 543.328 578.769 546.064 578.769 547.093C578.769 552.861 549.487 553.027 546.148 553.027Z" fill="#2F2E41"/>
<path d="M546.148 613.552C542.809 613.552 513.526 613.369 513.526 607.024C513.526 600.68 542.809 600.497 546.148 600.497V603.108C528.901 603.108 517.717 605.349 515.916 607.024C517.717 608.7 528.901 610.941 546.148 610.941C563.356 610.941 574.528 608.71 576.367 607.036C575.492 606.319 571.917 604.816 562.33 603.854L562.524 601.253C578.769 602.883 578.769 605.892 578.769 607.025C578.769 613.369 549.487 613.552 546.148 613.552Z" fill="#2F2E41"/>
<path d="M546.148 672.889C542.809 672.889 513.526 672.74 513.526 667.549C513.526 662.358 542.809 662.208 546.148 662.208V664.345C528.901 664.345 517.717 666.178 515.916 667.549C517.717 668.92 528.901 670.753 546.148 670.753C563.356 670.753 574.528 668.928 576.367 667.558C575.492 666.972 571.917 665.742 562.33 664.955L562.524 662.827C578.769 664.16 578.769 666.622 578.769 667.549C578.769 672.74 549.487 672.889 546.148 672.889Z" fill="#2F2E41"/>
<path d="M546.148 732.227C542.809 732.227 513.526 732.094 513.526 727.48C513.526 722.866 542.809 722.733 546.148 722.733V724.632C528.901 724.632 517.717 726.261 515.916 727.48C517.717 728.699 528.901 730.328 546.148 730.328C563.356 730.328 574.528 728.706 576.367 727.488C575.492 726.967 571.917 725.874 562.33 725.174L562.524 723.283C578.769 724.468 578.769 726.656 578.769 727.48C578.769 732.094 549.487 732.227 546.148 732.227Z" fill="#2F2E41"/>
<path d="M546.148 793.938C542.809 793.938 513.526 793.788 513.526 788.598C513.526 783.407 542.809 783.257 546.148 783.257V785.394C528.901 785.394 517.717 787.227 515.916 788.598C517.717 789.969 528.901 791.802 546.148 791.802C563.356 791.802 574.528 789.977 576.367 788.607C575.492 788.02 571.917 786.791 562.33 786.004L562.524 783.876C578.769 785.209 578.769 787.671 578.769 788.598C578.769 793.788 549.487 793.938 546.148 793.938Z" fill="#2F2E41"/>
<path d="M546.148 853.276C542.809 853.276 513.526 853.159 513.526 849.122C513.526 845.085 542.809 844.969 546.148 844.969V846.63C528.901 846.63 517.717 848.056 515.916 849.122C517.717 850.189 528.901 851.614 546.148 851.614C563.356 851.614 574.528 850.195 576.367 849.13C575.492 848.673 571.917 847.717 562.33 847.105L562.524 845.45C578.769 846.486 578.769 848.401 578.769 849.122C578.769 853.159 549.487 853.276 546.148 853.276Z" fill="#2F2E41"/>
<path d="M546.148 916.174C542.809 916.174 513.526 916.024 513.526 910.833C513.526 905.643 542.809 905.493 546.148 905.493V907.629C528.901 907.629 517.717 909.462 515.916 910.833C517.717 912.204 528.901 914.038 546.148 914.038C563.356 914.038 574.528 912.212 576.367 910.843C575.492 910.256 571.917 909.026 562.33 908.239L562.524 906.111C578.769 907.444 578.769 909.907 578.769 910.833C578.769 916.024 549.487 916.174 546.148 916.174Z" fill="#2F2E41"/>
<path d="M546.148 975.511C542.809 975.511 513.526 975.362 513.526 970.171C513.526 964.98 542.809 964.831 546.148 964.831V966.967C528.901 966.967 517.717 968.8 515.916 970.171C517.717 971.542 528.901 973.375 546.148 973.375C563.356 973.375 574.528 971.55 576.367 970.18C575.492 969.594 571.917 968.364 562.33 967.577L562.524 965.449C578.769 966.782 578.769 969.244 578.769 970.171C578.769 975.362 549.487 975.511 546.148 975.511Z" fill="#2F2E41"/>
<path d="M546.148 1036.04C542.809 1036.04 513.526 1035.89 513.526 1030.7C513.526 1025.5 542.809 1025.36 546.148 1025.36V1027.49C528.901 1027.49 517.717 1029.32 515.916 1030.7C517.717 1032.07 528.901 1033.9 546.148 1033.9C563.356 1033.9 574.528 1032.07 576.367 1030.7C575.492 1030.12 571.917 1028.89 562.33 1028.1L562.524 1025.97C578.769 1027.31 578.769 1029.77 578.769 1030.7C578.769 1035.89 549.487 1036.04 546.148 1036.04Z" fill="#2F2E41"/>
<path d="M944.97 650.341H695.578C693.624 650.339 691.751 649.591 690.37 648.262C688.988 646.933 688.211 645.13 688.209 643.25V549.437C688.211 547.557 688.988 545.755 690.37 544.426C691.751 543.096 693.624 542.349 695.578 542.346H944.97C946.924 542.349 948.797 543.096 950.178 544.426C951.559 545.755 952.336 547.557 952.339 549.437V643.25C952.336 645.13 951.559 646.933 950.178 648.262C948.797 649.591 946.924 650.339 944.97 650.341V650.341Z" fill="white"/>
<path d="M852.863 574.389H787.684C786.141 574.389 784.661 573.889 783.569 572.998C782.478 572.108 781.865 570.901 781.865 569.642C781.865 568.383 782.478 567.175 783.569 566.285C784.661 565.395 786.141 564.895 787.684 564.895H852.864C854.407 564.895 855.887 565.395 856.979 566.285C858.07 567.175 858.683 568.383 858.683 569.642C858.683 570.901 858.07 572.108 856.979 572.998C855.887 573.889 854.407 574.389 852.864 574.389H852.863Z" fill="#2F2E41"/>
<path d="M888.707 600.497H752.893C751.367 600.497 749.903 600.06 748.824 599.281C747.745 598.502 747.138 597.445 747.138 596.344C747.138 595.242 747.745 594.186 748.824 593.407C749.903 592.628 751.367 592.19 752.893 592.19H888.707C890.233 592.19 891.697 592.628 892.776 593.407C893.855 594.186 894.462 595.242 894.462 596.344C894.462 597.445 893.855 598.502 892.776 599.281C891.697 600.06 890.233 600.497 888.707 600.497Z" fill="#2F2E41"/>
<path d="M888.707 628.979H752.893C751.367 628.979 749.903 628.417 748.824 627.415C747.745 626.414 747.138 625.055 747.138 623.639C747.138 622.223 747.745 620.864 748.824 619.863C749.903 618.861 751.367 618.299 752.893 618.299H888.707C890.233 618.299 891.697 618.861 892.776 619.863C893.855 620.864 894.462 622.223 894.462 623.639C894.462 625.055 893.855 626.414 892.776 627.415C891.697 628.417 890.233 628.979 888.707 628.979Z" fill="#2F2E41"/>
<path d="M367.227 473.99C367.227 473.99 432.489 521.919 399.858 532.812C367.227 543.705 346.251 493.597 346.251 493.597L367.227 473.99Z" fill="#FFB8B8"/>
<path d="M364.897 456.561L378.882 478.347C378.882 478.347 355.574 478.347 350.912 511.026L332.266 489.24L364.897 456.561Z" fill="#CFCCE0"/>
<path d="M54.9065 953.279L52.575 1018.64L80.5444 1033.89L92.1976 1027.35L89.8676 953.279H54.9065Z" fill="#FFB8B8"/>
<path d="M220.39 935.85L215.728 1005.56L280.989 1031.71L276.328 994.671C276.328 994.671 257.682 966.35 262.343 935.85H220.39Z" fill="#FFB8B8"/>
<path d="M120.167 410.811C120.167 410.811 82.8753 502.311 75.8831 558.955C68.8908 615.598 57.2369 765.92 57.2369 765.92L33.9293 959.814L99.1906 968.528L127.16 772.456L190.09 578.562L204.075 772.456L215.728 948.921L276.328 951.1L280.99 768.099L306.628 534.99L292.643 423.882L120.167 410.811Z" fill="#2F2E41"/>
<path d="M85.206 1022.99C85.206 1022.99 81.3832 986.403 52.9948 1006.88L47.914 1003.39L24.6064 1051.31C24.6064 1051.31 -3.36264 1088.35 45.5832 1092.71C94.5291 1097.06 89.8676 1051.31 89.8676 1051.31L94.5291 1031.71L92.1984 1018.87L85.206 1022.99Z" fill="#2F2E41"/>
<path d="M220.39 979.421C214.653 982.487 209.898 986.933 206.62 992.296C203.341 997.659 201.657 1003.74 201.744 1009.92C201.744 1031.71 204.075 1033.89 204.075 1033.89L239.036 1042.6C239.036 1042.6 262.344 1040.42 276.328 1053.49C290.313 1066.56 360.235 1075.28 360.235 1057.85C360.235 1040.42 301.967 1012.1 301.967 1012.1C301.967 1012.1 284.662 984.785 272.338 987.55C260.013 990.314 255.351 994.671 255.351 996.85C255.351 999.029 262.344 1014.28 262.344 1014.28C262.344 1014.28 222.721 1005.56 220.39 979.421Z" fill="#2F2E41"/>
<path d="M225.051 142.845C192.87 142.845 166.782 118.461 166.782 88.3806C166.782 58.3007 192.87 33.9161 225.051 33.9161C257.232 33.9161 283.32 58.3007 283.32 88.3806C283.32 118.461 257.232 142.845 225.051 142.845Z" fill="#FFB8B8"/>
<path d="M181.932 102.541L156.294 157.006L226.217 250.685C226.217 250.685 230.878 148.292 244.863 130.863C258.847 113.434 181.932 102.541 181.932 102.541Z" fill="#FFB8B8"/>
<path d="M214.563 215.828L202.909 187.507L193.587 189.685L181.932 180.97L165.618 133.042L142.31 148.292L112.01 433.686L300.801 438.043L275.163 239.792L251.855 183.149L235.031 162.36L223.887 194.042L214.563 215.828Z" fill="#CFCCE0"/>
<path d="M160.956 337.829L153.824 140.758C153.824 140.758 139.979 141.756 135.317 148.292C130.656 154.828 53.7409 167.899 53.7409 167.899L67.7253 370.507C67.7253 370.507 9.45647 531.722 30.4333 540.437C51.4101 549.151 88.7022 546.973 88.7022 546.973L160.956 337.829Z" fill="#575A89"/>
<path d="M273.997 312.775L249.272 179.957L304.297 214.738L290.313 310.596L301.966 375.954C301.966 375.954 346.251 556.776 332.266 563.312C318.282 569.848 301.966 563.312 301.966 563.312L273.997 380.311V312.775Z" fill="#575A89"/>
<path d="M287.982 210.381L304.297 214.739L311.29 301.882L322.943 378.132L378.882 471.811C378.882 471.811 350.912 454.383 339.259 504.49L277.654 404.238L287.982 210.381Z" fill="#575A89"/>
<path d="M106.183 456.561C106.183 456.561 171.444 504.49 138.814 515.383C106.183 526.276 85.2061 476.169 85.2061 476.169L106.183 456.561Z" fill="#FFB8B8"/>
<path d="M66.5597 480.526L87.5361 504.49L115.506 458.74L103.852 439.133L66.5597 480.526Z" fill="#CFCCE0"/>
<path d="M71.2216 175.524L52.5756 166.81C52.5756 166.81 38.591 184.238 36.2603 199.488C33.9295 214.738 22.2757 234.346 22.2757 245.239C22.2757 256.132 -10.3549 358.525 -10.3549 358.525L64.2293 500.133C64.2293 500.133 80.5446 447.847 115.506 443.49L57.237 367.239L89.8677 312.775L71.2216 175.524Z" fill="#575A89"/>
<path d="M176.272 36.4876L165.284 32.3758C165.284 32.3758 188.258 8.7333 220.224 10.7893L211.233 1.53775C211.233 1.53775 233.209 -6.68565 253.187 14.9009C263.689 26.2484 275.84 39.5869 283.415 54.6126H295.183L290.271 64.7205L307.461 74.8285L289.817 73.0129C290.869 78.5482 291.03 84.1991 290.296 89.7789C289.539 95.3603 286.492 100.449 281.798 103.97V103.97C281.798 103.97 268.171 77.6048 268.171 73.493V83.7724C268.171 83.7724 257.183 74.521 257.183 68.3534L251.189 75.549L248.193 64.2416L211.233 75.549L217.227 66.2976L194.252 69.3814L203.242 58.074C203.242 58.074 177.271 71.4372 176.272 82.7445C175.273 94.0517 167.671 104.766 167.671 104.766C167.671 104.766 147.303 51.9065 176.272 36.4876Z" fill="#2F2E41"/>
<path d="M177.271 87.2913C173.667 87.2913 170.745 83.8774 170.745 79.6662C170.745 75.455 173.667 72.0411 177.271 72.0411C180.875 72.0411 183.797 75.455 183.797 79.6662C183.797 83.8774 180.875 87.2913 177.271 87.2913Z" fill="#FFB8B8"/>
<path d="M510.323 1068.08H-40.9874C-41.5595 1068.08 -42.1082 1067.77 -42.5127 1067.21C-42.9173 1066.65 -43.1446 1065.9 -43.1446 1065.11C-43.1446 1064.32 -42.9173 1063.57 -42.5127 1063.01C-42.1082 1062.46 -41.5595 1062.14 -40.9874 1062.14H510.323C510.894 1062.15 511.441 1062.46 511.844 1063.02C512.247 1063.57 512.474 1064.33 512.474 1065.11C512.474 1065.9 512.247 1066.65 511.844 1067.21C511.441 1067.76 510.894 1068.08 510.323 1068.08V1068.08Z" fill="#3F3D56"/>
</g>
<defs>
<clipPath id="clip0">
<rect width="1368" height="1093" fill="white"/>
</clipPath>
</defs>
</svg>
