<svg width="964" height="775" viewBox="0 0 964 775" fill="none" xmlns="http://www.w3.org/2000/svg">
<g clip-path="url(#clip0)">
<path d="M963.51 719.526H0V721.767H963.51V719.526Z" fill="#3F3D56"/>
<path d="M604.525 335.81C604.525 335.81 561.308 369.767 582.916 377.484C604.525 385.202 618.416 349.702 618.416 349.702L604.525 335.81Z" fill="#FFB8B8"/>
<path d="M606.068 323.463L596.807 338.897C596.807 338.897 612.242 338.897 615.329 362.049L627.677 346.615L606.068 323.463Z" fill="#CFCCE0"/>
<path d="M811.35 675.375L812.894 721.679L794.372 732.483L786.655 727.853L788.198 675.375H811.35Z" fill="#FFB8B8"/>
<path d="M701.764 663.027L704.851 712.418L661.633 730.94L664.72 704.701C664.72 704.701 677.068 684.636 673.981 663.027H701.764Z" fill="#FFB8B8"/>
<path d="M768.133 291.05C768.133 291.05 792.829 355.876 797.459 396.006C802.089 436.136 809.807 542.636 809.807 542.636L825.242 680.005L782.024 686.179L763.503 547.266L721.829 409.897L712.568 547.266L704.851 672.288L664.72 673.831L661.633 544.179L644.655 379.028L653.916 300.311L768.133 291.05Z" fill="#2F2E41"/>
<path d="M791.285 724.766C791.285 724.766 793.817 698.843 812.616 713.348L815.981 710.875L831.415 744.831C831.415 744.831 849.937 771.07 817.524 774.157C785.111 777.244 788.198 744.831 788.198 744.831L785.111 730.94L786.655 721.843L791.285 724.766Z" fill="#2F2E41"/>
<path d="M701.763 693.896C705.563 696.069 708.711 699.218 710.883 703.018C713.054 706.818 714.169 711.129 714.111 715.505C714.111 730.94 712.568 732.483 712.568 732.483L689.416 738.657C689.416 738.657 673.981 737.114 664.72 746.375C655.459 755.635 609.155 761.809 609.155 749.462C609.155 737.114 647.742 717.049 647.742 717.049C647.742 717.049 659.201 697.696 667.363 699.655C675.524 701.614 678.611 704.701 678.611 706.244C678.611 707.788 673.981 718.592 673.981 718.592C673.981 718.592 700.22 712.418 701.763 693.896Z" fill="#2F2E41"/>
<path d="M698.677 101.202C719.988 101.202 737.264 83.9265 737.264 62.6155C737.264 41.3046 719.988 24.0287 698.677 24.0287C677.366 24.0287 660.09 41.3046 660.09 62.6155C660.09 83.9265 677.366 101.202 698.677 101.202Z" fill="#FFB8B8"/>
<path d="M727.231 72.6481L744.209 111.235L697.905 177.604C697.905 177.604 694.818 105.061 685.557 92.7132C676.296 80.3654 727.231 72.6481 727.231 72.6481Z" fill="#FFB8B8"/>
<path d="M705.622 152.909L713.34 132.844L719.513 134.387L727.231 128.213L738.035 94.257L753.47 105.061L773.535 307.256L648.514 310.343L665.492 169.887L680.927 129.757L692.068 115.028L699.448 137.474L705.622 152.909Z" fill="#CFCCE0"/>
<path d="M741.122 239.343L745.845 99.7238C745.845 99.7238 755.013 100.431 758.1 105.061C761.187 109.692 812.122 118.952 812.122 118.952L802.861 262.495C802.861 262.495 841.448 376.713 827.557 382.886C813.665 389.06 788.97 387.517 788.97 387.517L741.122 239.343Z" fill="#575A89"/>
<path d="M666.264 221.593L682.637 127.495L646.198 152.137L655.459 220.05L647.742 266.354C647.742 266.354 618.416 394.462 627.677 399.093C636.938 403.723 647.742 399.093 647.742 399.093L666.264 269.441V221.593Z" fill="#575A89"/>
<path d="M657.003 149.05L646.198 152.137L641.568 213.876L633.851 267.898L596.807 334.267C596.807 334.267 615.329 321.919 623.046 357.419L663.842 286.393L657.003 149.05Z" fill="#575A89"/>
<path d="M777.394 323.463C777.394 323.463 734.176 357.419 755.785 365.136C777.394 372.854 791.285 337.354 791.285 337.354L777.394 323.463Z" fill="#FFB8B8"/>
<path d="M803.633 340.441L789.742 357.419L771.22 325.006L778.937 311.115L803.633 340.441Z" fill="#CFCCE0"/>
<path d="M800.546 124.355L812.893 118.181C812.893 118.181 822.154 130.528 823.698 141.333C825.241 152.137 832.959 166.028 832.959 173.746C832.959 181.463 854.567 254.006 854.567 254.006L805.176 354.332C805.176 354.332 794.372 317.289 771.22 314.202L809.807 260.18L788.198 221.593L800.546 124.355Z" fill="#575A89"/>
<path d="M730.979 25.8505L738.256 22.9375C738.256 22.9375 723.042 6.18733 701.874 7.64393L707.827 1.08946C707.827 1.08946 693.274 -4.73662 680.044 10.5569C673.09 18.5964 665.043 28.0464 660.027 38.6917H652.234L655.487 45.8529L644.104 53.0142L655.787 51.7279C655.091 55.6495 654.984 59.653 655.47 63.6062C655.971 67.5605 657.989 71.1654 661.098 73.6602V73.6602C661.098 73.6602 670.122 54.9811 670.122 52.068V59.3507C670.122 59.3507 677.399 52.7963 677.399 48.4268L681.368 53.5246L683.352 45.5136L707.827 53.5246L703.858 46.9702L719.073 49.155L713.119 41.144C713.119 41.144 730.318 50.6115 730.979 58.6225C731.641 66.6333 736.675 74.2241 736.675 74.2241C736.675 74.2241 750.163 36.7745 730.979 25.8505Z" fill="#2F2E41"/>
<path d="M730.318 61.8438C732.705 61.8438 734.64 59.4251 734.64 56.4416C734.64 53.4581 732.705 51.0394 730.318 51.0394C727.931 51.0394 725.996 53.4581 725.996 56.4416C725.996 59.4251 727.931 61.8438 730.318 61.8438Z" fill="#FFB8B8"/>
<path d="M178.601 318.118H45.3611V280.782H114.91L178.601 318.118Z" fill="#2F2E41"/>
<path d="M44.9951 312.994V422.075H477.66V312.994H44.9951ZM213.742 403.773H73.1806V388.399H213.742V403.773ZM449.475 375.221H73.1806V359.847H449.475V375.221ZM449.475 346.67H73.1806V331.296H449.475V346.67Z" fill="#00ADB5"/>
<path d="M178.601 141.685H45.3611V104.348H114.91L178.601 141.685Z" fill="#2F2E41"/>
<path d="M44.9951 138.756V247.838H477.66V138.756H44.9951ZM213.742 229.535H73.1806V214.162H213.742V229.535ZM295.004 200.984H73.1806V185.61H295.004L295.004 200.984ZM449.475 172.432H73.1806V157.059H449.475V172.432Z" fill="#00ADB5"/>
<path d="M178.601 490.891H45.3611V453.555H114.91L178.601 490.891Z" fill="#2F2E41"/>
<path d="M44.9951 483.57V592.652H477.66V483.57H44.9951ZM295.004 574.35H73.1806V558.976H295.004V574.35ZM295.004 545.798H73.1806V530.424H295.004V545.798ZM449.475 517.247H73.1806V501.873H449.475V517.247Z" fill="#00ADB5"/>
<path d="M600.285 223.679H538.789V162.183H580.519V163.647H540.254V222.215H598.821V192.931H600.285V223.679Z" fill="#3F3D56"/>
<path d="M569.221 207.638C567.799 203.442 549.979 189.179 560.899 186.781L569.854 198.722L611.026 157.55L615.167 161.691L569.221 207.638Z" fill="#2F2E41"/>
<path d="M600.285 397.916H538.789V336.42H580.519V337.885H540.254V396.452H598.821V367.168H600.285V397.916Z" fill="#3F3D56"/>
<path d="M569.221 381.876C567.799 377.68 549.979 363.416 560.899 361.018L569.854 372.959L611.026 331.788L615.167 335.929L569.221 381.876Z" fill="#2F2E41"/>
<path d="M600.285 571.421H538.789V509.926H580.519V511.39H540.254V569.957H598.821V540.673H600.285V571.421Z" fill="#3F3D56"/>
<path d="M569.221 555.381C567.799 551.185 549.979 536.921 560.899 534.524L569.854 546.464L611.026 505.293L615.167 509.434L569.221 555.381Z" fill="#2F2E41"/>
</g>
<defs>
<clipPath id="clip0">
<rect width="963.51" height="774.364" fill="white"/>
</clipPath>
</defs>
</svg>
